<mxfile host="app.diagrams.net" modified="2022-12-25T17:13:26.102Z" agent="5.0 (Windows NT 10.0; Win64; x64) AppleWebKit/537.36 (KHTML, like Gecko) Chrome/108.0.0.0 Safari/537.36 OPR/94.0.0.0" version="20.7.4" etag="ENPBsRbvVVbnWKsP73YS" type="github">
  <diagram id="Ml2dGVcdlFa9VVf0Y3eY" name="Page-1">
    <mxGraphModel dx="1010" dy="542" grid="1" gridSize="10" guides="1" tooltips="1" connect="1" arrows="1" fold="1" page="1" pageScale="1" pageWidth="850" pageHeight="1100" math="0" shadow="0">
      <root>
        <mxCell id="0" />
        <mxCell id="1" parent="0" />
        <mxCell id="07kP67LV0Qa-peX4RKDk-1" value="users" style="swimlane;whiteSpace=wrap;html=1;" vertex="1" parent="1">
          <mxGeometry x="580" y="275" width="130" height="140" as="geometry" />
        </mxCell>
        <mxCell id="07kP67LV0Qa-peX4RKDk-2" value="&lt;font style=&quot;font-size: 14px;&quot;&gt;id&lt;/font&gt;&lt;hr&gt;&lt;div style=&quot;font-size: 14px;&quot;&gt;&lt;span style=&quot;background-color: initial;&quot;&gt;&lt;font style=&quot;font-size: 14px;&quot;&gt;username&lt;/font&gt;&lt;/span&gt;&lt;/div&gt;&lt;hr&gt;&lt;div style=&quot;font-size: 14px;&quot;&gt;&lt;span style=&quot;background-color: initial;&quot;&gt;&lt;font style=&quot;font-size: 14px;&quot;&gt;password&lt;/font&gt;&lt;/span&gt;&lt;/div&gt;&lt;div style=&quot;font-size: 14px;&quot;&gt;&lt;hr&gt;last connection&lt;/div&gt;&lt;hr&gt;" style="text;html=1;align=left;verticalAlign=middle;resizable=0;points=[];autosize=1;strokeColor=none;fillColor=none;spacingTop=5;" vertex="1" parent="07kP67LV0Qa-peX4RKDk-1">
          <mxGeometry x="10" width="120" height="140" as="geometry" />
        </mxCell>
        <mxCell id="07kP67LV0Qa-peX4RKDk-3" value="admins" style="swimlane;whiteSpace=wrap;html=1;" vertex="1" parent="1">
          <mxGeometry x="580" y="150" width="120" height="110" as="geometry" />
        </mxCell>
        <mxCell id="07kP67LV0Qa-peX4RKDk-4" value="&lt;font style=&quot;font-size: 14px;&quot;&gt;id&lt;/font&gt;&lt;hr&gt;&lt;div style=&quot;font-size: 14px;&quot;&gt;&lt;span style=&quot;background-color: initial;&quot;&gt;&lt;font style=&quot;font-size: 14px;&quot;&gt;username&lt;/font&gt;&lt;/span&gt;&lt;/div&gt;&lt;hr&gt;&lt;div style=&quot;font-size: 14px;&quot;&gt;&lt;span style=&quot;background-color: initial;&quot;&gt;&lt;font style=&quot;font-size: 14px;&quot;&gt;password&lt;/font&gt;&lt;/span&gt;&lt;/div&gt;&lt;div style=&quot;font-size: 14px;&quot;&gt;&lt;br&gt;&lt;/div&gt;" style="text;html=1;align=left;verticalAlign=middle;resizable=0;points=[];autosize=1;strokeColor=none;fillColor=none;spacingTop=5;" vertex="1" parent="07kP67LV0Qa-peX4RKDk-3">
          <mxGeometry x="10" y="15" width="90" height="110" as="geometry" />
        </mxCell>
        <mxCell id="07kP67LV0Qa-peX4RKDk-5" value="rooms" style="swimlane;whiteSpace=wrap;html=1;strokeColor=default;fontSize=14;fillColor=none;" vertex="1" parent="1">
          <mxGeometry x="100" y="150" width="80" height="80" as="geometry" />
        </mxCell>
        <mxCell id="07kP67LV0Qa-peX4RKDk-6" value="room" style="text;html=1;align=center;verticalAlign=middle;resizable=0;points=[];autosize=1;strokeColor=none;fillColor=none;fontSize=14;" vertex="1" parent="07kP67LV0Qa-peX4RKDk-5">
          <mxGeometry x="10" y="30" width="60" height="30" as="geometry" />
        </mxCell>
        <mxCell id="07kP67LV0Qa-peX4RKDk-9" value="allows users" style="swimlane;whiteSpace=wrap;html=1;strokeColor=default;fontSize=14;fillColor=none;" vertex="1" parent="1">
          <mxGeometry x="390" y="70" width="130" height="70" as="geometry" />
        </mxCell>
        <mxCell id="07kP67LV0Qa-peX4RKDk-10" value="user" style="text;html=1;align=center;verticalAlign=middle;resizable=0;points=[];autosize=1;strokeColor=none;fillColor=none;fontSize=14;" vertex="1" parent="07kP67LV0Qa-peX4RKDk-9">
          <mxGeometry x="20" y="30" width="50" height="30" as="geometry" />
        </mxCell>
        <mxCell id="07kP67LV0Qa-peX4RKDk-13" value="room" style="swimlane;whiteSpace=wrap;html=1;strokeColor=default;fontSize=14;fillColor=none;" vertex="1" parent="1">
          <mxGeometry x="260" y="110" width="95" height="80" as="geometry" />
        </mxCell>
        <mxCell id="07kP67LV0Qa-peX4RKDk-14" value="&lt;div style=&quot;&quot;&gt;&lt;span style=&quot;background-color: initial;&quot;&gt;users&lt;/span&gt;&lt;/div&gt;&lt;hr&gt;&lt;div style=&quot;&quot;&gt;massages&lt;br&gt;&lt;/div&gt;" style="text;html=1;align=left;verticalAlign=middle;resizable=0;points=[];autosize=1;strokeColor=none;fillColor=none;fontSize=14;" vertex="1" parent="07kP67LV0Qa-peX4RKDk-13">
          <mxGeometry x="5" y="20" width="90" height="60" as="geometry" />
        </mxCell>
        <mxCell id="07kP67LV0Qa-peX4RKDk-15" value="massage" style="swimlane;whiteSpace=wrap;html=1;strokeColor=default;fontSize=14;fillColor=none;" vertex="1" parent="1">
          <mxGeometry x="280" y="250" width="80" height="170" as="geometry" />
        </mxCell>
        <mxCell id="07kP67LV0Qa-peX4RKDk-16" value="id&lt;hr&gt;user&lt;hr&gt;text&lt;hr&gt;time" style="text;html=1;align=left;verticalAlign=middle;resizable=0;points=[];autosize=1;strokeColor=none;fillColor=none;fontSize=14;" vertex="1" parent="07kP67LV0Qa-peX4RKDk-15">
          <mxGeometry x="10" y="30" width="50" height="130" as="geometry" />
        </mxCell>
      </root>
    </mxGraphModel>
  </diagram>
</mxfile>
